<svg width="33" height="32" viewBox="0 0 33 32" fill="none" xmlns="http://www.w3.org/2000/svg">
<mask id="mask0_35_669" style="mask-type:alpha" maskUnits="userSpaceOnUse" x="7" y="3" width="25" height="26">
<path d="M30.5484 14.4004C31.8172 15.0986 31.8172 16.9014 30.5484 17.5996L10.2563 28.7659C9.02052 29.4459 7.5 28.5634 7.5 27.1663L7.5 4.83374C7.5 3.43657 9.02052 2.55415 10.2563 3.23415L30.5484 14.4004Z" fill="#C4C4C4"/>
</mask>
<g mask="url(#mask0_35_669)">
<path d="M8.13473 28.5464L20.7923 15.8177L8.34319 3.29858C7.84653 3.61697 7.5 4.16666 7.5 4.83365V27.1662C7.5 27.7352 7.75223 28.2189 8.13473 28.5464Z" fill="url(#paint0_linear_35_669)"/>
<path d="M30.5484 14.4005C31.8172 15.0987 31.8172 16.9015 30.5484 17.5997L25.4291 20.4167L20.7924 15.8178L25.1926 11.4534L30.5484 14.4005Z" fill="url(#paint1_linear_35_669)"/>
<path d="M25.4291 20.4166L20.7923 15.8176L8.1347 28.5464C8.69133 29.023 9.52383 29.1689 10.2563 28.7658L25.4291 20.4166Z" fill="url(#paint2_linear_35_669)"/>
<path d="M8.3432 3.29865L20.7923 15.8177L25.1926 11.4533L10.2563 3.23415C9.61046 2.87878 8.88688 2.95013 8.3432 3.29865Z" fill="url(#paint3_linear_35_669)"/>
</g>
<defs>
<linearGradient id="paint0_linear_35_669" x1="16.1769" y1="10.8737" x2="7.57106" y2="19.5504" gradientUnits="userSpaceOnUse">
<stop stop-color="#00C3FF"/>
<stop offset="1" stop-color="#1BE2FA"/>
</linearGradient>
<linearGradient id="paint1_linear_35_669" x1="20.7924" y1="15.8178" x2="32.2385" y2="15.8178" gradientUnits="userSpaceOnUse">
<stop stop-color="#FFCE00"/>
<stop offset="1" stop-color="#FFEA00"/>
</linearGradient>
<linearGradient id="paint2_linear_35_669" x1="7.86926" y1="30.1002" x2="23.0949" y2="17.8934" gradientUnits="userSpaceOnUse">
<stop stop-color="#DE2453"/>
<stop offset="1" stop-color="#FE3944"/>
</linearGradient>
<linearGradient id="paint3_linear_35_669" x1="8.60768" y1="1.90137" x2="23.0975" y2="13.7365" gradientUnits="userSpaceOnUse">
<stop stop-color="#11D574"/>
<stop offset="1" stop-color="#01F176"/>
</linearGradient>
</defs>
</svg>
